name analog
datacolumns 19
datarows 23
range 0.0 0.011
endheader
time	ground_force_vx	ground_force_vy	ground_force_vz	ground_force_px	ground_force_py	ground_force_pz	l_ground_force_vx	l_ground_force_vy	l_ground_force_vz	l_ground_force_px	l_ground_force_py	l_ground_force_pz	ground_torque_x	ground_torque_y	ground_torque_z	l_ground_torque_x	l_ground_torque_y	l_ground_torque_z
0.0	-0.0	-0.0	-0.0	9.180611610412598	15.695013999938965	-440.7685546875	-9.287652015686035	-17.000097274780273	-278.092041015625	-0.0	-0.0	-0.0	-0.0	-0.0	-0.0	98467.171875	13257.830078125	-5729.6591796875
0.0005	-0.0	-0.0	-0.0	9.569966316223145	15.481693267822266	-441.0470275878906	-9.430298805236816	-16.74647331237793	-278.6229858398437	-0.0	-0.0	-0.0	-0.0	-0.0	-0.0	98017.2890625	13196.966796875	-5798.0712890625
0.001	-0.0	-0.0	-0.0	8.921051025390625	15.438265800476074	-441.2939758300781	-9.685391426086426	-17.038162231445312	-278.4857482910156	-0.0	-0.0	-0.0	-0.0	-0.0	-0.0	98179.5	13205.6474609375	-5804.70458984375
0.0015	-0.0	-0.0	-0.0	8.858786582946777	15.757525444030762	-440.16888427734375	-9.217851638793944	-16.931001663208008	-277.9987487792969	-0.0	-0.0	-0.0	-0.0	-0.0	-0.0	98331.1796875	13486.984375	-5727.02734375
0.002	-0.0	-0.0	-0.0	8.804916381835938	15.579349517822266	-439.6422424316406	-9.457060813903809	-16.869441986083984	-278.4115600585937	-0.0	-0.0	-0.0	-0.0	-0.0	-0.0	98097.9140625	13288.7060546875	-5649.89794921875
0.0025	-0.0	-0.0	-0.0	8.501885414123535	15.464741706848145	-439.5299987792969	-9.456986427307127	-16.912565231323242	-278.2089538574219	-0.0	-0.0	-0.0	-0.0	-0.0	-0.0	98244.296875	13362.9541015625	-5810.689453125
0.003	-0.0	-0.0	-0.0	8.769478797912598	15.63330078125	-439.6027526855469	-9.333057403564451	-16.834453582763672	-279.3212890625	-0.0	-0.0	-0.0	-0.0	-0.0	-0.0	98340.421875	13498.638671875	-5727.1171875
0.0035	-0.0	-0.0	-0.0	8.519906997680664	15.509295463562012	-439.3928527832031	-9.37658405303955	-16.79936408996582	-279.2881164550781	-0.0	-0.0	-0.0	-0.0	-0.0	-0.0	98727.109375	13344.8017578125	-5694.6630859375
0.004	-0.0	-0.0	-0.0	8.252086639404297	15.401870727539062	-438.6144409179688	-8.924521446228027	-16.869441986083984	-279.8428955078125	-0.0	-0.0	-0.0	-0.0	-0.0	-0.0	98731.4375	13323.7587890625	-5664.67041015625
0.0045000000000000005	-0.0	-0.0	-0.0	8.180618286132812	15.874168395996094	-439.567626953125	-9.403343200683594	-16.84287452697754	-280.01959228515625	-0.0	-0.0	-0.0	-0.0	-0.0	-0.0	98750.5234375	13582.486328125	-5676.79736328125
0.005	-0.0	-0.0	-0.0	8.332341194152832	15.446258544921877	-439.4616394042969	-9.403343200683594	-16.842899322509766	-280.40313720703125	-0.0	-0.0	-0.0	-0.0	-0.0	-0.0	98836.140625	13297.3837890625	-5685.7119140625
0.0055	-0.0	-0.0	-0.0	8.644266128540039	15.196346282958984	-438.8276062011719	-9.270236015319824	-17.116710662841797	-280.68310546875	-0.0	-0.0	-0.0	-0.0	-0.0	-0.0	98778.8828125	13595.65234375	-5715.33837890625
0.006	-0.0	-0.0	-0.0	8.572322845458984	15.704316139221191	-438.64947509765625	-9.36780071258545	-16.878360748291016	-280.6473693847656	-0.0	-0.0	-0.0	-0.0	-0.0	-0.0	99168.375	13386.5244140625	-5798.3349609375
0.006500000000000001	-0.0	-0.0	-0.0	8.68940258026123	15.455510139465332	-439.3929443359375	-9.199371337890623	-16.843008041381836	-280.6822509765625	-0.0	-0.0	-0.0	-0.0	-0.0	-0.0	99172.7109375	13564.703125	-5798.337890625
0.007	-0.0	-0.0	-0.0	8.617379188537598	15.597820281982422	-438.29632568359375	-9.341154098510742	-16.78112030029297	-281.2074279785156	-0.0	-0.0	-0.0	-0.0	-0.0	-0.0	99222.6015625	13580.404296875	-5611.29248046875
0.0075	-0.0	-0.0	-0.0	9.109041213989258	15.66042709350586	-438.0861206054688	-9.376859664916992	-17.293901443481445	-280.99420166015625	-0.0	-0.0	-0.0	-0.0	-0.0	-0.0	99528.578125	13555.01171875	-5718.50927734375
0.008	-0.0	-0.0	-0.0	8.788503646850586	15.499016761779783	-437.8381652832031	-9.386268615722656	-16.878772735595703	-281.8391418457031	-0.0	-0.0	-0.0	-0.0	-0.0	-0.0	99320.9609375	13572.072265625	-5783.47314453125
0.0085	-0.0	-0.0	-0.0	8.653419494628906	15.508689880371094	-438.4011535644531	-9.43921184539795	-17.002880096435547	-281.3418273925781	-0.0	-0.0	-0.0	-0.0	-0.0	-0.0	99347.1171875	13598.734375	-5807.513671875
0.009000000000000001	-0.0	-0.0	-0.0	8.590655326843262	15.409696578979492	-440.24505615234375	-9.225921630859377	-16.967281341552734	-281.06707763671875	-0.0	-0.0	-0.0	-0.0	-0.0	-0.0	99517.8984375	13393.6884765625	-5849.06103515625
0.0095	-0.0	-0.0	-0.0	8.474998474121094	15.462353706359863	-438.0872192382813	-9.688819885253906	-16.826610565185547	-280.7835388183594	-0.0	-0.0	-0.0	-0.0	-0.0	-0.0	99346.0390625	13869.5546875	-5825.31640625
0.01	-0.0	-0.0	-0.0	8.223706245422363	15.828808784484863	-437.943115234375	-9.65288543701172	-16.843233108520508	-282.114501953125	-0.0	-0.0	-0.0	-0.0	-0.0	-0.0	99265.4296875	13684.623046875	-5762.71142578125
0.0105	-0.0	-0.0	-0.0	8.548020362854004	15.591797828674316	-437.4856262207031	-9.659627914428713	-16.931591033935547	-281.4549865722656	-0.0	-0.0	-0.0	-0.0	-0.0	-0.0	99467.75	13714.13671875	-5834.11279296875
0.011	-0.0	-0.0	-0.0	8.700279235839844	15.409295082092283	-436.7794189453125	-9.93560791015625	-16.9154109954834	-281.4305114746094	-0.0	-0.0	-0.0	-0.0	-0.0	-0.0	99422.921875	13763.599609375	-5843.06982421875
